<svg width="60" height="40" viewBox="0 0 60 40" fill="none" xmlns="http://www.w3.org/2000/svg">
<path d="M41.2117 19.9408L56.5899 6.58027V33.1489L41.2117 19.9408ZM21.3959 22.2034L26.7961 26.8911C27.6437 27.6111 28.7487 28.0462 29.9562 28.0462H29.9987H29.9963H30.0313C31.2413 28.0462 32.3463 27.6086 33.2039 26.8836L33.1964 26.8886L38.5966 22.2009L55.0123 36.299H4.98771L21.3959 22.2034ZM4.96521 3.41264H55.0423L30.9888 24.3035C30.7183 24.5174 30.3836 24.6337 30.0388 24.6335H30.0038H30.0063H29.9712C29.6252 24.634 29.2893 24.5167 29.0187 24.301L29.0212 24.3035L4.96521 3.41264ZM3.41264 6.57777L18.7883 19.9383L3.41264 33.1389V6.57777ZM57.4149 0.47502C56.8149 0.175007 56.1098 0 55.3623 0H4.64769C3.92307 0.000173095 3.2084 0.168784 2.56011 0.492521L2.58761 0.48002C1.81151 0.862814 1.15792 1.45501 0.700665 2.1897C0.243412 2.9244 0.000718401 3.77233 0 4.63769L0 35.069C0.00132356 36.3005 0.491151 37.4813 1.36201 38.3521C2.23286 39.223 3.41362 39.7128 4.64519 39.7142H55.3548C56.5864 39.7128 57.7671 39.223 58.638 38.3521C59.5089 37.4813 59.9987 36.3005 60 35.069V4.63769C60 2.82012 58.9525 1.24505 57.4274 0.487521L57.3999 0.47502H57.4149Z" fill="#F0F0F0"/>
</svg>
