<svg width="17" height="17" viewBox="0 0 17 17" fill="none" xmlns="http://www.w3.org/2000/svg">
<path d="M0 8.5C-1.66332e-08 7.38376 0.219859 6.27846 0.647024 5.24719C1.07419 4.21592 1.70029 3.27889 2.48959 2.48959C3.27889 1.70029 4.21592 1.07419 5.24719 0.647024C6.27846 0.219859 7.38376 0 8.5 0C9.61624 0 10.7215 0.219859 11.7528 0.647024C12.7841 1.07419 13.7211 1.70029 14.5104 2.48959C15.2997 3.27889 15.9258 4.21592 16.353 5.24719C16.7801 6.27846 17 7.38376 17 8.5C17 10.7543 16.1045 12.9163 14.5104 14.5104C12.9163 16.1045 10.7543 17 8.5 17C6.24566 17 4.08365 16.1045 2.48959 14.5104C0.895533 12.9163 3.35923e-08 10.7543 0 8.5V8.5ZM8.5 7.08333L7.90217 6.38633C7.72182 6.17198 7.49994 5.99636 7.2499 5.87005C6.99987 5.74373 6.72685 5.66935 6.4473 5.65137C6.16775 5.63339 5.88745 5.67219 5.62329 5.76543C5.35913 5.85867 5.11659 6.00442 4.91026 6.1939C4.70394 6.38338 4.53811 6.61267 4.42277 6.86795C4.30742 7.12323 4.24495 7.39922 4.23912 7.67929C4.23329 7.95936 4.28421 8.23771 4.38883 8.49757C4.49344 8.75743 4.64958 8.99343 4.84783 9.19133L8.24783 12.648C8.38525 12.7897 8.61333 12.7897 8.75217 12.648L12.1522 9.19133C12.3484 8.99292 12.5025 8.75698 12.6055 8.49762C12.7084 8.23826 12.758 7.96081 12.7512 7.68185C12.7445 7.4029 12.6816 7.12816 12.5662 6.87408C12.4509 6.62 12.2855 6.39179 12.0799 6.2031C11.8743 6.0144 11.6328 5.8691 11.3698 5.77587C11.1068 5.68264 10.8277 5.64341 10.5492 5.66051C10.2707 5.67762 9.99849 5.75071 9.74887 5.87542C9.49925 6.00013 9.27734 6.1739 9.09642 6.38633L8.5 7.08333Z" fill="#FF0000"/>
</svg>
