<svg width="60" height="60" viewBox="0 0 60 60" fill="none" xmlns="http://www.w3.org/2000/svg">
<path d="M42.1257 0H17.8743C8.01838 0 0 8.01838 0 17.8743V42.1257C0 51.9816 8.01838 60 17.8743 60H42.1257C51.9816 60 60 51.9816 60 42.1257V17.8743C59.9999 8.01838 51.9815 0 42.1257 0ZM53.964 42.1257C53.964 48.6637 48.6637 53.964 42.1257 53.964H17.8743C11.3363 53.964 6.036 48.6637 6.036 42.1257V17.8743C6.036 11.3361 11.3363 6.036 17.8743 6.036H42.1257C48.6637 6.036 53.964 11.3361 53.964 17.8743V42.1257Z" fill="#F0F0F0"/>
<path d="M30 14.4819C21.4433 14.4819 14.4819 21.4433 14.4819 29.9999C14.4819 38.5565 21.4433 45.518 30 45.518C38.5567 45.518 45.5181 38.5566 45.5181 29.9999C45.5181 21.4432 38.5567 14.4819 30 14.4819ZM30 39.4821C24.7631 39.4821 20.5179 35.2369 20.5179 30C20.5179 24.7631 24.7632 20.5179 30 20.5179C35.2369 20.5179 39.4821 24.7631 39.4821 30C39.4821 35.2368 35.2368 39.4821 30 39.4821Z" fill="#F0F0F0"/>
<path d="M45.5478 18.3169C47.6014 18.3169 49.2661 16.6522 49.2661 14.5986C49.2661 12.545 47.6014 10.8802 45.5478 10.8802C43.4942 10.8802 41.8294 12.545 41.8294 14.5986C41.8294 16.6522 43.4942 18.3169 45.5478 18.3169Z" fill="#F0F0F0"/>
</svg>
