<svg xmlns="http://www.w3.org/2000/svg" viewBox="0 0 137.7 137.6"><defs><style>.cls-1{fill:#fff;}</style></defs><g id="Camada_2" data-name="Camada 2"><g id="layer"><path class="cls-1" d="M79.8,78s-.7,27.1,37.8,37.8C106.4,77.3,79.8,78,79.8,78"/><path class="cls-1" d="M57.9,56.3s.7-27-37.8-37.8C31.3,57,57.9,56.3,57.9,56.3"/><path class="cls-1" d="M68.9,84.2s-19.6,18.6,0,53.4c19.4-35,0-53.4,0-53.4"/><path class="cls-1" d="M68.8,53.4S88.4,34.8,68.8,0c-19.4,35.1,0,53.4,0,53.4"/><path class="cls-1" d="M84.3,68.7s18.6,19.6,53.4,0c-35.1-19.3-53.4,0-53.4,0"/><path class="cls-1" d="M53.4,68.9S34.8,49.3,0,68.9c35.1,19.3,53.4,0,53.4,0"/><path class="cls-1" d="M79.7,56.2s27,.7,37.8-37.8C79,29.5,79.7,56.2,79.7,56.2"/><path class="cls-1" d="M58,78.1s-27.1-.7-37.8,37.8C58.7,104.7,58,78.1,58,78.1"/><path class="cls-1" d="M109.6,97.4C97.1,77.5,79.8,77.9,79.8,77.9S79.3,95.6,99.5,108a44.3,44.3,0,0,0,10.1-10.6"/><path class="cls-1" d="M57.9,56.3s.4-16.2-17.2-28.5A53.15,53.15,0,0,0,29.3,38.6C41.7,56.7,57.9,56.3,57.9,56.3"/><path class="cls-1" d="M68.9,84.2S56.6,95.9,61.2,118a48.43,48.43,0,0,0,15.2,0c4.7-22.2-7.5-33.8-7.5-33.8"/><path class="cls-1" d="M68.8,53.4s12.3-11.7,7.7-33.8a48.43,48.43,0,0,0-15.2,0c-4.7,22.2,7.5,33.8,7.5,33.8"/><path class="cls-1" d="M84.3,68.7S96,81,118.1,76.4a48.43,48.43,0,0,0,0-15.2c-22.3-4.6-33.8,7.5-33.8,7.5"/><path class="cls-1" d="M53.4,68.9S41.7,56.6,19.6,61.2a48.43,48.43,0,0,0,0,15.2c22.3,4.6,33.8-7.5,33.8-7.5"/><path class="cls-1" d="M79.7,56.2s16.4.4,28.7-17.6A46.8,46.8,0,0,0,97,27.8C79.3,40.1,79.7,56.2,79.7,56.2"/><path class="cls-1" d="M58,78.1s-17.5-.5-29.9,19.3a53.91,53.91,0,0,0,10.1,10.7C58.5,95.5,58,78.1,58,78.1"/><path class="cls-1" d="M98.2,84.8C88.6,77.7,79.9,78,79.9,78s-.2,9.1,7.1,18.9A34.25,34.25,0,0,0,98.2,84.8"/><path class="cls-1" d="M57.9,56.3s.2-7.7-5.5-16.5A33.38,33.38,0,0,0,41,50.5c9,6,16.9,5.8,16.9,5.8"/><path class="cls-1" d="M68.9,84.2s-6.1,5.8-8.1,17a35,35,0,0,0,8,1,35.92,35.92,0,0,0,8.1-1c-1.9-11.2-8-17-8-17"/><path class="cls-1" d="M68.8,53.4s6.1-5.8,8.1-17a35.76,35.76,0,0,0-8-1,35.92,35.92,0,0,0-8.1,1c1.9,11.2,8,17,8,17"/><path class="cls-1" d="M101.2,60.7c-11.2,1.9-16.9,8-16.9,8s5.8,6.1,17,8.1a35,35,0,0,0,1-8,31,31,0,0,0-1.1-8.1"/><path class="cls-1" d="M53.4,68.9s-5.8-6.1-17-8.1a35,35,0,0,0-1,8,35.92,35.92,0,0,0,1,8.1c11.3-2,17-8,17-8"/><path class="cls-1" d="M85.3,39.7c-5.7,8.8-5.5,16.4-5.5,16.4s8,.2,17-5.8A35.37,35.37,0,0,0,85.3,39.7"/><path class="cls-1" d="M58,78.1s-8.8-.2-18.4,6.8a34,34,0,0,0,11.2,12C58.2,87.1,58,78.1,58,78.1"/></g></g></svg>