<svg width="50" height="60" viewBox="0 0 50 60" fill="none" xmlns="http://www.w3.org/2000/svg">
<path d="M24.6934 0C31.2425 0 37.5233 2.60162 42.1543 7.23253C46.7852 11.8634 49.3868 18.1443 49.3868 24.6934C49.3868 35.1279 42.0547 46.4996 27.5806 58.9298C26.7758 59.6212 25.7497 60.0009 24.6887 60C23.6276 59.9991 22.6022 59.6176 21.7986 58.9248L20.8412 58.0941C7.00786 45.988 0 34.8949 0 24.6934C0 18.1443 2.60162 11.8634 7.23253 7.23253C11.8634 2.60162 18.1443 0 24.6934 0ZM24.6934 3.79898C19.1518 3.79898 13.8373 6.00035 9.91881 9.91881C6.00035 13.8373 3.79898 19.1519 3.79898 24.6934C3.79898 33.5628 10.2522 43.782 23.3359 55.2296L24.2806 56.0477C24.3954 56.1464 24.5419 56.2008 24.6934 56.2008C24.8449 56.2008 24.9914 56.1464 25.1062 56.0477C38.8231 44.2658 45.5878 33.773 45.5878 24.6934C45.5878 21.9495 45.0473 19.2325 43.9973 16.6975C42.9473 14.1624 41.4082 11.859 39.468 9.91881C37.5277 7.97859 35.2244 6.43952 32.6893 5.38948C30.1543 4.33943 27.4373 3.79898 24.6934 3.79898ZM24.6934 15.1959C27.2123 15.1959 29.628 16.1966 31.4091 17.9777C33.1902 19.7588 34.1908 22.1745 34.1908 24.6934C34.1908 27.2123 33.1902 29.628 31.4091 31.4091C29.628 33.1902 27.2123 34.1909 24.6934 34.1909C22.1745 34.1909 19.7588 33.1902 17.9777 31.4091C16.1966 29.628 15.1959 27.2123 15.1959 24.6934C15.1959 22.1745 16.1966 19.7588 17.9777 17.9777C19.7588 16.1966 22.1745 15.1959 24.6934 15.1959ZM24.6934 18.9949C23.1821 18.9949 21.7326 19.5953 20.664 20.664C19.5953 21.7326 18.9949 23.1821 18.9949 24.6934C18.9949 26.2047 19.5953 27.6542 20.664 28.7228C21.7326 29.7915 23.1821 30.3919 24.6934 30.3919C26.2047 30.3919 27.6542 29.7915 28.7228 28.7228C29.7915 27.6542 30.3919 26.2047 30.3919 24.6934C30.3919 23.1821 29.7915 21.7326 28.7228 20.664C27.6542 19.5953 26.2047 18.9949 24.6934 18.9949Z" fill="#F0F0F0"/>
</svg>
