<svg xmlns="http://www.w3.org/2000/svg" xmlns:xlink="http://www.w3.org/1999/xlink" viewBox="0 0 283.14 283.14"><defs><style>.cls-1{fill:url(#linear-gradient);}.cls-2{fill:#414042;}</style><linearGradient id="linear-gradient" y1="141.57" x2="283.14" y2="141.57" gradientUnits="userSpaceOnUse"><stop offset="0.01" stop-color="#b7945f"/><stop offset="0.52" stop-color="#ffe7a3"/><stop offset="0.65" stop-color="#e8cd8d"/><stop offset="0.88" stop-color="#c5a46c"/><stop offset="1" stop-color="#b7945f"/></linearGradient></defs><g id="Layer_2" data-name="Layer 2"><g id="Layer_1-2" data-name="Layer 1"><circle class="cls-1" cx="141.57" cy="141.57" r="141.57"/><path class="cls-2" d="M119.24,148.81a13,13,0,0,1-12.88,12.87V131a29.15,29.15,0,0,1,9.16-21.65,30.24,30.24,0,0,1,21.88-8.92h18.08a12.15,12.15,0,0,1-12.18,12.18h-5.9a17.36,17.36,0,0,0-12.88,5.4,17.91,17.91,0,0,0-5.28,13Z"/><path class="cls-2" d="M131.55,186.85a12.37,12.37,0,0,1-9.08,3.8V144.74A29.38,29.38,0,0,1,131.63,123a31.13,31.13,0,0,1,43.79,0,30.2,30.2,0,0,1,0,43.37,30.33,30.33,0,0,1-22,8.93H135.35v2.45A12.38,12.38,0,0,1,131.55,186.85Zm22-23.71a17.21,17.21,0,0,0,12.83-5.41,18,18,0,0,0,5.25-13,18.23,18.23,0,0,0-5.25-13.06,17.77,17.77,0,0,0-25.67,0,18.23,18.23,0,0,0-5.25,13.06v18.4Z"/><polygon class="cls-2" points="110.73 77.92 46.24 142.27 142.07 237.89 237.9 142.27 142.07 46.65 142.52 50.2 225.74 143.44 142.07 233.93 60.09 140.99 110.77 80.29 110.73 77.92"/></g></g></svg>