<svg width="60" height="60" viewBox="0 0 60 60" fill="none" xmlns="http://www.w3.org/2000/svg">
<path fill-rule="evenodd" clip-rule="evenodd" d="M43.747 35.955C42.9984 35.5825 39.3284 33.7875 38.6451 33.5375C37.9618 33.29 37.4644 33.1675 36.9645 33.9125C36.4672 34.6525 35.0378 36.3275 34.6032 36.8225C34.1661 37.32 33.7316 37.38 32.9855 37.01C32.2394 36.635 29.8329 35.8525 26.9817 33.3225C24.7636 31.3526 23.2639 28.9201 22.8293 28.1751C22.3948 27.4326 22.7816 27.0301 23.1559 26.6601C23.4925 26.3276 23.902 25.7926 24.2763 25.3601C24.6506 24.9251 24.7736 24.6151 25.0223 24.1176C25.2735 23.6226 25.1479 23.1901 24.9595 22.8176C24.7736 22.4451 23.2815 18.7876 22.6585 17.3001C22.0531 15.8526 21.4377 16.0501 20.9805 16.0251C20.5434 16.0051 20.046 16.0001 19.5486 16.0001C19.0512 16.0001 18.2424 16.1851 17.5591 16.9301C16.8733 17.6726 14.9466 19.4701 14.9466 23.1276C14.9466 26.7826 17.6194 30.3151 17.9937 30.8126C18.368 31.3076 23.2564 38.8125 30.7447 42.03C32.5283 42.795 33.9174 43.2525 35.0001 43.5925C36.7887 44.16 38.4165 44.08 39.7026 43.8875C41.1345 43.675 44.1188 42.09 44.7418 40.355C45.3623 38.62 45.3623 37.1325 45.1764 36.8225C44.9905 36.5125 44.4931 36.3275 43.7445 35.955H43.747ZM30.1268 54.4625H30.1167C25.669 54.4633 21.303 53.2734 17.4762 51.0175L16.5719 50.4825L7.17185 52.9375L9.68137 43.8175L9.09104 42.8825C6.60448 38.9434 5.28857 34.3845 5.29536 29.7326C5.30038 16.1076 16.4387 5.02259 30.1368 5.02259C36.7686 5.02259 43.0035 7.59759 47.6909 12.2676C50.0029 14.559 51.8354 17.284 53.0824 20.2848C54.3294 23.2856 54.9661 26.5028 54.9557 29.7501C54.9507 43.375 43.8123 54.4625 30.1268 54.4625ZM51.258 8.72009C48.4902 5.9474 45.197 3.74894 41.5693 2.2521C37.9416 0.755261 34.0514 -0.0101906 30.1243 0.000102444C13.6604 0.000102444 0.256227 13.3376 0.251203 29.7301C0.243574 34.9469 1.61869 40.0735 4.2378 44.5925L0 60L15.8358 55.865C20.2165 58.2403 25.1256 59.4849 30.1142 59.485H30.1268C46.5906 59.485 59.9948 46.1475 59.9999 29.7526C60.012 25.8457 59.2456 21.9753 57.7451 18.3652C56.2446 14.755 54.0397 11.4768 51.258 8.72009Z" fill="white"/>
</svg>
